<?xml version="1.0" ?><svg height="60px" version="1.1" viewBox="0 0 60 60" width="60px" xmlns="http://www.w3.org/2000/svg" xmlns:xlink="http://www.w3.org/1999/xlink"><title/><desc/><defs/><g fill="none" fill-rule="evenodd" id="Page-1" stroke="none" stroke-width="1"><g fill-rule="nonzero" id="013---Playlist"><g id="Icons" stroke="#7D5E46" transform="translate(1.000000, 1.000000)"><ellipse cx="29" cy="29" fill="#93E7CE" id="Oval" rx="29" ry="28.875"/><path d="M14,19.90933 L14,30.09067 C13.9907072,30.4212904 14.1677322,30.7291581 14.4581482,30.8874448 C14.7485643,31.0457315 15.1032384,31.0276581 15.37606,30.84067 L22.61565,25.75 C22.8569589,25.5763745 22.9999918,25.2972507 22.9999918,24.99997 C22.9999918,24.7026893 22.8569589,24.4235655 22.61565,24.24994 L15.37606,19.1593 C15.1032339,18.9723083 14.7485528,18.9542373 14.4581344,19.1125317 C14.167716,19.270826 13.9906955,19.5787043 14,19.90933 Z" fill="#66C68F" id="Shape"/><rect fill="#66C68F" height="4" id="Rectangle-path" rx="2" width="17" x="27" y="19.05478"/><rect fill="#66C68F" height="4" id="Rectangle-path" rx="2" width="17" x="27" y="27.05478"/><rect fill="#66C68F" height="4" id="Rectangle-path" rx="2" width="30" x="14" y="35.05478"/></g><g fill="#7D5E46" id="Layer_12"><path d="M30,59.875 C13.516729,59.8061758 0.203712938,46.4001913 0.249595741,29.9168404 C0.295478545,13.4334895 13.6829211,0.101828045 30.1663198,0.124769353 C46.6497186,0.147710662 59.9999998,13.5165853 60,30 C59.9467204,46.5262011 46.5262795,59.8907235 30,59.875 Z M30,2.125 C14.6212947,2.19380832 2.20369152,14.7043573 2.24956401,30.0831481 C2.29543649,45.4619389 14.787452,57.8981865 30.1662941,57.87525 C45.5451362,57.8523134 58.0000005,45.3788592 58,30 C57.9479795,14.5778464 45.422232,2.10801744 30,2.125 Z" id="Shape"/><path d="M30,55.875 C15.7258624,55.8062083 4.20367241,44.1910968 4.24953355,29.9168671 C4.29539468,15.6426374 15.8919815,4.1018034 30.1662665,4.12473387 C44.4405514,4.14766433 55.9999997,15.7256966 56,30 C55.9492389,44.3181062 44.3181845,55.893242 30,55.875 Z M30,6.125 C16.8304243,6.19376862 6.20363798,16.9134441 6.24948467,30.0831195 C6.29533136,43.2527949 16.9964946,53.898223 30.1662298,53.8752983 C43.3359651,53.8523737 54.0000025,43.1697552 54,30 C53.950323,16.7860145 43.2140648,6.10567421 30,6.125 Z" id="Shape"/><path d="M15.88086,32.999 C15.5824822,32.9989563 15.2885203,32.9269178 15.02393,32.789 C14.3914834,32.4594115 13.9962889,31.8039845 14,31.09082 L14,20.90918 C13.9962664,20.195994 14.3914641,19.5405384 15.02393,19.21094 C15.6400509,18.8899794 16.3838877,18.940297 16.95117,19.34131 L24.19092,24.43213 C24.6985081,24.7929741 25.0000021,25.3772206 25.0000021,26 C25.0000021,26.6227794 24.6985081,27.2070259 24.19092,27.56787 L16.95117,32.65869 C16.6380184,32.8797619 16.2641831,32.9986246 15.88086,32.999 Z M16,21.11719 L16,30.88281 L22.94385,26 L16,21.11719 Z" id="Shape"/><path d="M43,25.05469 L30,25.05469 C28.3431458,25.05469 27,23.7115442 27,22.05469 C27,20.3978358 28.3431458,19.05469 30,19.05469 L43,19.05469 C44.6568542,19.05469 46,20.3978358 46,22.05469 C46,23.7115442 44.6568542,25.05469 43,25.05469 Z M30,21.05469 C29.4477153,21.05469 29,21.5024053 29,22.05469 C29,22.6069747 29.4477153,23.05469 30,23.05469 L43,23.05469 C43.5522847,23.05469 44,22.6069747 44,22.05469 C44,21.5024053 43.5522847,21.05469 43,21.05469 L30,21.05469 Z" id="Shape"/><path d="M43.0000001,33.05469 L30,33.05469 C28.3431458,33.05469 27,31.7115442 27,30.05469 C27,28.3978358 28.3431458,27.05469 30,27.05469 L43.0000001,27.05469 C44.6568543,27.0546901 46,28.3978358 46,30.05469 C46,31.7115442 44.6568543,33.0546899 43.0000001,33.05469 Z M30,29.05469 C29.4477153,29.05469 29,29.5024053 29,30.05469 C29,30.6069747 29.4477153,31.05469 30,31.05469 L43,31.05469 C43.5522847,31.05469 44,30.6069747 44,30.05469 C44,29.5024053 43.5522847,29.05469 43,29.05469 L30,29.05469 Z" id="Shape"/><path d="M43,41.05469 L17,41.05469 C15.3431458,41.05469 14,39.7115442 14,38.05469 C14,36.3978358 15.3431458,35.05469 17,35.05469 L43,35.05469 C44.6568542,35.05469 46,36.3978358 46,38.05469 C46,39.7115442 44.6568542,41.05469 43,41.05469 Z M17,37.05469 C16.4477153,37.05469 16,37.5024053 16,38.05469 C16,38.6069747 16.4477153,39.05469 17,39.05469 L43,39.05469 C43.5522847,39.05469 44,38.6069747 44,38.05469 C44,37.5024053 43.5522847,37.05469 43,37.05469 L17,37.05469 Z" id="Shape"/></g></g></g></svg>